<?xml version='1.0' encoding='UTF-8'?>
<svg xmlns="http://www.w3.org/2000/svg" width="178mm" height="94.56mm" viewBox="0 0 1600 850"><rect x="0" y="0" width="1600" height="850" fill="white"/><text x="65" y="70" fill="#222222" font-family="Arial,Helvetica,sans-serif" font-size="30" font-weight="700" text-anchor="start">(a)  Selected-candidate composition</text><text x="360" y="147" fill="#222222" font-family="Arial,Helvetica,sans-serif" font-size="24" font-weight="400" text-anchor="end">MLP</text><rect x="405" y="125" width="49" height="38" fill="#2F7FB3"/><text x="429.5" y="153" fill="white" font-family="Arial,Helvetica,sans-serif" font-size="20" font-weight="400" text-anchor="middle">1</text><rect x="454" y="125" width="441" height="38" fill="#35A28F"/><text x="674.5" y="153" fill="white" font-family="Arial,Helvetica,sans-serif" font-size="20" font-weight="400" text-anchor="middle">9</text><text x="360" y="219" fill="#222222" font-family="Arial,Helvetica,sans-serif" font-size="24" font-weight="400" text-anchor="end">GRU</text><rect x="405" y="197" width="245" height="38" fill="#2F7FB3"/><text x="527.5" y="225" fill="white" font-family="Arial,Helvetica,sans-serif" font-size="20" font-weight="400" text-anchor="middle">5</text><rect x="650" y="197" width="245" height="38" fill="#35A28F"/><text x="772.5" y="225" fill="white" font-family="Arial,Helvetica,sans-serif" font-size="20" font-weight="400" text-anchor="middle">5</text><text x="360" y="291" fill="#222222" font-family="Arial,Helvetica,sans-serif" font-size="24" font-weight="400" text-anchor="end">LSTM</text><rect x="405" y="269" width="343" height="38" fill="#2F7FB3"/><text x="576.5" y="297" fill="white" font-family="Arial,Helvetica,sans-serif" font-size="20" font-weight="400" text-anchor="middle">7</text><rect x="748" y="269" width="147" height="38" fill="#35A28F"/><text x="821.5" y="297" fill="white" font-family="Arial,Helvetica,sans-serif" font-size="20" font-weight="400" text-anchor="middle">3</text><text x="360" y="363" fill="#222222" font-family="Arial,Helvetica,sans-serif" font-size="24" font-weight="400" text-anchor="end">Temporal CNN</text><rect x="405" y="341" width="49" height="38" fill="#2F7FB3"/><text x="429.5" y="369" fill="white" font-family="Arial,Helvetica,sans-serif" font-size="20" font-weight="400" text-anchor="middle">1</text><rect x="454" y="341" width="441" height="38" fill="#35A28F"/><text x="674.5" y="369" fill="white" font-family="Arial,Helvetica,sans-serif" font-size="20" font-weight="400" text-anchor="middle">9</text><text x="360" y="435" fill="#222222" font-family="Arial,Helvetica,sans-serif" font-size="24" font-weight="400" text-anchor="end">Positional Transformer</text><rect x="405" y="413" width="49" height="38" fill="#667483"/><text x="429.5" y="441" fill="white" font-family="Arial,Helvetica,sans-serif" font-size="20" font-weight="400" text-anchor="middle">1</text><rect x="454" y="413" width="98" height="38" fill="#2F7FB3"/><text x="503.0" y="441" fill="white" font-family="Arial,Helvetica,sans-serif" font-size="20" font-weight="400" text-anchor="middle">2</text><rect x="552" y="413" width="343" height="38" fill="#35A28F"/><text x="723.5" y="441" fill="white" font-family="Arial,Helvetica,sans-serif" font-size="20" font-weight="400" text-anchor="middle">7</text><text x="360" y="557" fill="#222222" font-family="Arial,Helvetica,sans-serif" font-size="24" font-weight="700" text-anchor="end">Overall</text><rect x="405" y="534" width="9.8" height="38" fill="#667483"/><text x="409.9" y="525" fill="#222222" font-family="Arial,Helvetica,sans-serif" font-size="20" font-weight="400" text-anchor="middle">1/50</text><rect x="414.8" y="534" width="156.8" height="38" fill="#2F7FB3"/><text x="493.20000000000005" y="566" fill="white" font-family="Arial,Helvetica,sans-serif" font-size="20" font-weight="400" text-anchor="middle">16/50</text><rect x="571.6" y="534" width="323.40000000000003" height="38" fill="#35A28F"/><text x="733.3000000000001" y="566" fill="white" font-family="Arial,Helvetica,sans-serif" font-size="20" font-weight="400" text-anchor="middle">33/50</text><rect x="430" y="612" width="18" height="18" fill="#667483"/><text x="458" y="629" fill="#222222" font-family="Arial,Helvetica,sans-serif" font-size="21" font-weight="400" text-anchor="start">Raw</text><rect x="615" y="612" width="18" height="18" fill="#2F7FB3"/><text x="643" y="629" fill="#222222" font-family="Arial,Helvetica,sans-serif" font-size="21" font-weight="400" text-anchor="start">SG(5,2)</text><rect x="800" y="612" width="18" height="18" fill="#35A28F"/><text x="828" y="629" fill="#222222" font-family="Arial,Helvetica,sans-serif" font-size="21" font-weight="400" text-anchor="start">QReg</text><text x="65" y="675" fill="#222222" font-family="Arial,Helvetica,sans-serif" font-size="26" font-weight="700" text-anchor="start">(b)  Near ties</text><line x1="137" y1="705" x2="137" y2="795" stroke="#222222" stroke-width="2"/><line x1="137" y1="795" x2="685" y2="795" stroke="#222222" stroke-width="2"/><line x1="132" y1="795.0" x2="137" y2="795.0" stroke="#222222" stroke-width="2"/><text x="127" y="800.0" fill="#222222" font-family="Arial,Helvetica,sans-serif" font-size="15" font-weight="400" text-anchor="end">0</text><line x1="132" y1="750.0" x2="137" y2="750.0" stroke="#222222" stroke-width="2"/><text x="127" y="755.0" fill="#222222" font-family="Arial,Helvetica,sans-serif" font-size="15" font-weight="400" text-anchor="end">4</text><line x1="132" y1="705.0" x2="137" y2="705.0" stroke="#222222" stroke-width="2"/><text x="127" y="710.0" fill="#222222" font-family="Arial,Helvetica,sans-serif" font-size="15" font-weight="400" text-anchor="end">8</text><circle cx="187" cy="761.25" r="5" fill="#2F7FB3" stroke="#2F7FB3" stroke-width="1.5"/><text x="187" y="749.25" fill="#222222" font-family="Arial,Helvetica,sans-serif" font-size="17" font-weight="400" text-anchor="middle">3/50</text><text x="187" y="820" fill="#222222" font-family="Arial,Helvetica,sans-serif" font-size="16" font-weight="400" text-anchor="middle">0</text><circle cx="407" cy="727.5" r="5" fill="#2F7FB3" stroke="#2F7FB3" stroke-width="1.5"/><text x="407" y="715.5" fill="#222222" font-family="Arial,Helvetica,sans-serif" font-size="17" font-weight="400" text-anchor="middle">6/50</text><text x="407" y="820" fill="#222222" font-family="Arial,Helvetica,sans-serif" font-size="16" font-weight="400" text-anchor="middle">0.001</text><circle cx="627" cy="727.5" r="5" fill="#2F7FB3" stroke="#2F7FB3" stroke-width="1.5"/><text x="627" y="715.5" fill="#222222" font-family="Arial,Helvetica,sans-serif" font-size="17" font-weight="400" text-anchor="middle">6/50</text><text x="627" y="820" fill="#222222" font-family="Arial,Helvetica,sans-serif" font-size="16" font-weight="400" text-anchor="middle">0.005</text><polyline points="187.00,761.25 407.00,727.50 627.00,727.50" fill="none" stroke="#2F7FB3" stroke-width="1.8"/><text x="825" y="675" fill="#222222" font-family="Arial,Helvetica,sans-serif" font-size="26" font-weight="700" text-anchor="start">(c)  Selection identity retained</text><line x1="897" y1="705" x2="897" y2="795" stroke="#222222" stroke-width="2"/><line x1="897" y1="795" x2="1445" y2="795" stroke="#222222" stroke-width="2"/><line x1="892" y1="795.0" x2="897" y2="795.0" stroke="#222222" stroke-width="2"/><text x="887" y="800.0" fill="#222222" font-family="Arial,Helvetica,sans-serif" font-size="15" font-weight="400" text-anchor="end">30</text><line x1="892" y1="759.0" x2="897" y2="759.0" stroke="#222222" stroke-width="2"/><text x="887" y="764.0" fill="#222222" font-family="Arial,Helvetica,sans-serif" font-size="15" font-weight="400" text-anchor="end">40</text><line x1="892" y1="723.0" x2="897" y2="723.0" stroke="#222222" stroke-width="2"/><text x="887" y="728.0" fill="#222222" font-family="Arial,Helvetica,sans-serif" font-size="15" font-weight="400" text-anchor="end">50</text><circle cx="947" cy="723.0" r="5" fill="#2F7FB3" stroke="#2F7FB3" stroke-width="1.5"/><text x="947" y="711.0" fill="#222222" font-family="Arial,Helvetica,sans-serif" font-size="17" font-weight="400" text-anchor="middle">50/50</text><text x="947" y="820" fill="#222222" font-family="Arial,Helvetica,sans-serif" font-size="16" font-weight="400" text-anchor="middle">0</text><circle cx="1167" cy="759.0" r="5" fill="#2F7FB3" stroke="#2F7FB3" stroke-width="1.5"/><text x="1167" y="747.0" fill="#222222" font-family="Arial,Helvetica,sans-serif" font-size="17" font-weight="400" text-anchor="middle">40/50</text><text x="1167" y="820" fill="#222222" font-family="Arial,Helvetica,sans-serif" font-size="16" font-weight="400" text-anchor="middle">0.001</text><circle cx="1387" cy="777.0" r="5" fill="#2F7FB3" stroke="#2F7FB3" stroke-width="1.5"/><text x="1387" y="765.0" fill="#222222" font-family="Arial,Helvetica,sans-serif" font-size="17" font-weight="400" text-anchor="middle">35/50</text><text x="1387" y="820" fill="#222222" font-family="Arial,Helvetica,sans-serif" font-size="16" font-weight="400" text-anchor="middle">0.005</text><polyline points="947.00,723.00 1167.00,759.00 1387.00,777.00" fill="none" stroke="#2F7FB3" stroke-width="1.8"/></svg>